<svg width="14" height="16" viewBox="0 0 14 16" fill="none" xmlns="http://www.w3.org/2000/svg">
<g id="Group">
<path id="Vector" d="M6.86496 7.98608C5.119 7.98608 3.58097 6.21417 3.43244 4.03582C3.35653 2.93061 3.67338 1.90739 4.32358 1.15513C4.96387 0.41 5.86821 0 6.86496 0C7.85511 0 8.75614 0.413565 9.39974 1.16226C10.0532 1.92165 10.3701 2.9413 10.2942 4.03582C10.1457 6.21417 8.60762 7.98608 6.86496 7.98608ZM6.86496 1.14087C6.16525 1.14087 5.53486 1.42252 5.09589 1.93235C4.65033 2.4493 4.43249 3.16947 4.4853 3.95382C4.59092 5.52252 5.68008 6.84878 6.86166 6.84878C8.04324 6.84878 9.1324 5.52252 9.23802 3.95382C9.29082 3.18017 9.07299 2.46356 8.62082 1.93948C8.18516 1.42252 7.55806 1.14087 6.86496 1.14087Z" fill="#21272A"/>
<path id="Vector_2" d="M12.6741 15.972H1.0564C0.739556 15.972 0.455714 15.8294 0.257684 15.5763C0.0431518 15.2982 -0.0426611 14.9203 0.0200483 14.5388C0.29729 12.8703 1.16862 11.4656 2.53503 10.4852C3.74961 9.61167 5.28764 9.13037 6.86528 9.13037C8.44291 9.13037 9.98094 9.61167 11.1955 10.4852C12.5619 11.4692 13.4333 12.8703 13.7105 14.5388C13.7732 14.9203 13.6874 15.2982 13.4729 15.5763C13.2748 15.8294 12.991 15.972 12.6741 15.972ZM1.063 14.8311H12.6675C12.6741 14.8133 12.6774 14.7848 12.6708 14.7385C12.1593 11.6688 9.30104 10.2677 6.86528 10.2677C4.42951 10.2677 1.57128 11.6688 1.0597 14.7385C1.0531 14.7848 1.0564 14.8133 1.063 14.8311Z" fill="#21272A"/>
</g>
</svg>
