<svg width="15" height="15" viewBox="0 0 15 15" fill="none" xmlns="http://www.w3.org/2000/svg">
<path d="M2.7707 14.1429C2.26274 14.1429 1.82805 13.9891 1.46662 13.6816C1.10459 13.3736 0.923567 13.0036 0.923567 12.5714V2.35714C0.66189 2.35714 0.442389 2.28198 0.265064 2.13164C0.0883547 1.98079 0 1.79405 0 1.57143C0 1.34881 0.0883547 1.16207 0.265064 1.01121C0.442389 0.860881 0.66189 0.785714 0.923567 0.785714H4.61783C4.61783 0.563095 4.7065 0.376357 4.88382 0.2255C5.06053 0.0751666 5.27972 0 5.5414 0H9.23567C9.49734 0 9.71685 0.0751666 9.89417 0.2255C10.0709 0.376357 10.1592 0.563095 10.1592 0.785714H13.8535C14.1152 0.785714 14.3344 0.860881 14.5111 1.01121C14.6884 1.16207 14.7771 1.34881 14.7771 1.57143C14.7771 1.79405 14.6884 1.98079 14.5111 2.13164C14.3344 2.28198 14.1152 2.35714 13.8535 2.35714V12.5714C13.8535 13.0036 13.6728 13.3736 13.3114 13.6816C12.9493 13.9891 12.5143 14.1429 12.0064 14.1429H2.7707ZM4.61783 10.2143C4.61783 10.4369 4.7065 10.6234 4.88382 10.7737C5.06053 10.9246 5.27972 11 5.5414 11C5.80308 11 6.02258 10.9246 6.1999 10.7737C6.37661 10.6234 6.46497 10.4369 6.46497 10.2143V4.71429C6.46497 4.49167 6.37661 4.30493 6.1999 4.15407C6.02258 4.00374 5.80308 3.92857 5.5414 3.92857C5.27972 3.92857 5.06053 4.00374 4.88382 4.15407C4.7065 4.30493 4.61783 4.49167 4.61783 4.71429V10.2143ZM8.3121 10.2143C8.3121 10.4369 8.40076 10.6234 8.57809 10.7737C8.7548 10.9246 8.97399 11 9.23567 11C9.49734 11 9.71685 10.9246 9.89417 10.7737C10.0709 10.6234 10.1592 10.4369 10.1592 10.2143V4.71429C10.1592 4.49167 10.0709 4.30493 9.89417 4.15407C9.71685 4.00374 9.49734 3.92857 9.23567 3.92857C8.97399 3.92857 8.7548 4.00374 8.57809 4.15407C8.40076 4.30493 8.3121 4.49167 8.3121 4.71429V10.2143Z" fill="#EA1313"/>
</svg>
