<svg width="35" height="35" viewBox="0 0 35 35" fill="none" xmlns="http://www.w3.org/2000/svg">
<g id="icon / ionicons / outline / cloud-download-outline">
<path id="Vector (Stroke)" fill-rule="evenodd" clip-rule="evenodd" d="M7.95305 8.50835C9.27312 5.25934 12.5752 2.1875 17.5 2.1875C22.7974 2.1875 27.3129 5.78913 28.308 11.6185C29.657 11.7838 31.1042 12.1853 32.3139 12.954C33.8525 13.9317 35 15.5115 35 17.8008C35 20.0151 34.0568 21.653 32.5055 22.6887C31.017 23.6825 29.0638 24.0625 27.0703 24.0625H21.875C21.2709 24.0625 20.7812 23.5728 20.7812 22.9688C20.7812 22.3647 21.2709 21.875 21.875 21.875H27.0703C28.8366 21.875 30.3013 21.5301 31.2909 20.8694C32.2176 20.2506 32.8125 19.3045 32.8125 17.8008C32.8125 16.372 32.1485 15.4406 31.1407 14.8003C30.082 14.1275 28.6475 13.7925 27.2896 13.7252C26.7509 13.6985 26.312 13.283 26.2559 12.7465C25.7049 7.47402 21.9154 4.375 17.5 4.375C13.3306 4.375 10.6649 7.12551 9.79152 9.84957C9.65795 10.2662 9.28897 10.5631 8.85344 10.6045C6.93495 10.7867 5.244 11.3537 4.05863 12.2831C2.91168 13.1823 2.1875 14.4538 2.1875 16.2422C2.1875 18.0273 2.9429 19.394 4.17164 20.3423C5.42678 21.3109 7.22652 21.875 9.29688 21.875H13.125C13.7291 21.875 14.2188 22.3647 14.2188 22.9688C14.2188 23.5728 13.7291 24.0625 13.125 24.0625H9.29688C6.85551 24.0625 4.55369 23.4002 2.83519 22.074C1.0903 20.7275 0 18.7309 0 16.2422C0 13.7567 1.05316 11.8598 2.70895 10.5616C4.15452 9.42823 6.01535 8.78111 7.95305 8.50835Z" fill="#21272A"/>
<path id="Vector (Stroke)_2" fill-rule="evenodd" clip-rule="evenodd" d="M12.351 26.5778C12.7778 26.1503 13.4703 26.1498 13.8978 26.5766L17.5 30.1732L21.1022 26.5766C21.5297 26.1498 22.2222 26.1503 22.649 26.5778C23.0758 27.0053 23.0753 27.6978 22.6478 28.1246L18.2728 32.4928C17.8458 32.9191 17.1542 32.9191 16.7272 32.4928L12.3522 28.1246C11.9247 27.6978 11.9242 27.0053 12.351 26.5778Z" fill="#21272A"/>
<path id="Vector (Stroke)_3" fill-rule="evenodd" clip-rule="evenodd" d="M17.5 14.2188C18.1041 14.2188 18.5938 14.7084 18.5938 15.3125V30.6271C18.5938 31.2311 18.1041 31.7208 17.5 31.7208C16.8959 31.7208 16.4062 31.2311 16.4062 30.6271V15.3125C16.4062 14.7084 16.8959 14.2188 17.5 14.2188Z" fill="#21272A"/>
</g>
</svg>
