<svg width="18" height="16" viewBox="0 0 18 16" fill="none" xmlns="http://www.w3.org/2000/svg">
<path d="M3.42354 12.5627V7.18143L9.35482 1.90674H1.71177C0.770296 1.90674 0 2.59176 0 3.42902V14.085C0 14.9222 0.770296 15.6072 1.71177 15.6072H13.6941C14.6356 15.6072 15.4059 14.9222 15.4059 14.085V7.28799L9.47464 12.5627H3.42354Z" fill="#EBBD46"/>
<path d="M5.13525 11.0402H8.7642L14.9266 5.55999L11.2976 2.33276L5.13525 7.81296V11.0402Z" fill="#EBBD46"/>
<path d="M17.0411 1.51847L15.8343 0.445266C15.1667 -0.148422 14.0797 -0.148422 13.4121 0.445266L12.5049 1.25207L16.1338 4.4793L17.0411 3.67249C17.7172 3.0788 17.7172 2.11216 17.0411 1.51847Z" fill="#EBBD46"/>
</svg>
