<svg width="101" height="89" viewBox="0 0 101 89" fill="none" xmlns="http://www.w3.org/2000/svg">
<g id="Grow">
<path id="Vector" d="M93.1097 63.8297C92.2472 61.1493 90.2229 58.8753 87.4739 57.4989C84.725 56.1226 81.4719 55.7541 78.4173 56.4733C72.8466 57.8639 65.2084 59.922 59.4798 61.3822C60.0041 59.9206 59.9428 58.3447 59.3063 56.9183C57.8544 53.7337 53.8302 52.3153 50.4687 52.3153H34.7191C33.109 52.2332 31.5957 51.6112 30.4897 50.577C28.8107 49.2184 26.6145 48.4642 24.335 48.4633H11.5364C8.84217 48.5144 6.28088 49.5049 4.41417 51.2176C2.54746 52.9303 1.52768 55.2254 1.57844 57.5997V75.4831C1.54701 76.6841 1.78469 77.8788 2.27788 78.9988C2.77107 80.1188 3.51009 81.1421 4.45262 82.0101C5.39516 82.8781 6.52271 83.5738 7.77073 84.0574C9.01875 84.5409 10.3627 84.8028 11.7258 84.8281H27.0967C29.0708 84.82 30.9981 84.2974 32.6359 83.3262L32.8253 83.4097C37.3011 85.5842 42.3277 86.7274 47.4387 86.7333C50.4788 86.7452 53.5027 86.3417 56.4025 85.5373L84.9666 77.875H85.1559C86.7249 77.4337 88.179 76.7226 89.4339 75.7827C90.6888 74.8428 91.7197 73.6929 92.4668 72.3995C93.2139 71.1061 93.6623 69.695 93.7862 68.2478C93.9101 66.8007 93.707 65.3462 93.1886 63.9687L93.1097 63.8297ZM11.7258 79.2656C11.1915 79.2408 10.6681 79.123 10.1857 78.9191C9.70323 78.7153 9.27136 78.4293 8.9149 78.0777C8.55845 77.7261 8.28446 77.3159 8.10872 76.8706C7.93298 76.4253 7.85897 75.9537 7.89094 75.4831V57.5997C7.84347 56.7013 8.19938 55.8226 8.88164 55.1537C9.5639 54.4848 10.5176 54.0796 11.5364 54.0258H24.3192C25.0243 54.0258 25.7024 54.2648 26.213 54.6933C26.7161 55.08 27.2429 55.4421 27.7911 55.7779V79.1543C27.5708 79.1748 27.3486 79.1748 27.1283 79.1543L11.7258 79.2656ZM83.0255 72.5628L54.5245 80.1834C52.2322 80.819 49.8419 81.138 47.4387 81.129C43.3796 81.1227 39.3886 80.2089 35.8395 78.4729L34.072 77.6525V57.85H34.7033H50.5003C51.0632 57.8029 51.6305 57.8799 52.1512 58.0741C52.6718 58.2683 53.1295 58.5736 53.483 58.9625C53.7355 59.5326 53.2936 61.2292 49.9795 64.0104L48.1647 65.5262L49.4114 67.4175C50.7686 69.5312 50.7686 69.5312 66.7077 65.3594C73.4778 63.6211 80.2322 61.8411 80.2322 61.8411C81.6936 61.5398 83.2307 61.7516 84.518 62.4317C85.8053 63.1118 86.7416 64.2067 87.1286 65.4845C87.4113 66.1828 87.5286 66.9248 87.4731 67.6645C87.4177 68.4043 87.1906 69.1262 86.8061 69.7857C86.4216 70.4451 85.8877 71.0281 85.2374 71.4986C84.5872 71.9691 83.8344 72.3171 83.0255 72.5211V72.5628Z" fill="white"/>
<path id="Vector_2" d="M99.2963 14.24C99.1971 13.1896 98.6806 12.2037 97.8377 11.4558C96.9948 10.708 95.8795 10.2461 94.6882 10.1515C90.7586 9.88733 83.4046 10.1515 78.2599 14.6155C77.3945 15.3742 76.6319 16.2188 75.9874 17.1325C75.5819 13.7308 74.0384 10.512 71.5529 7.88483C66.8185 3.18451 58.9279 2.39186 54.7301 2.32233C53.4513 2.3337 52.2244 2.7695 51.2943 3.54278C50.3641 4.31606 49.7989 5.36996 49.7116 6.4942C49.3802 10.4714 49.538 17.8556 54.2408 22.5003C58.1388 26.3523 64.1357 27.1311 68.444 27.1311C69.4982 27.1375 70.552 27.0911 71.6002 26.992V47.4064C71.6002 48.144 71.9327 48.8515 72.5247 49.373C73.1166 49.8946 73.9194 50.1876 74.7565 50.1876C75.5935 50.1876 76.3964 49.8946 76.9883 49.373C77.5802 48.8515 77.9127 48.144 77.9127 47.4064V34.8908C82.3946 34.8212 89.8749 34.0425 94.5304 29.968C99.5488 25.4345 99.675 18.1615 99.2963 14.24ZM69.8327 21.5825C66.5344 21.7633 61.5002 21.4156 58.8805 18.8012C55.9452 15.9226 55.7243 10.5548 55.8663 7.91264C58.8805 8.07951 63.9621 8.78873 66.7711 11.5561C69.5802 14.3234 69.959 18.9681 69.8327 21.5825ZM89.9538 26.0742C86.908 28.7442 81.3215 29.3005 77.9758 29.3839C78.4019 26.3801 79.554 21.3183 82.7102 18.5509C85.5193 16.0895 89.7802 15.6445 92.5261 15.6445H93.1101C93.2047 18.1615 93.1101 23.3069 89.9538 26.0742Z" fill="white"/>
</g>
</svg>
