<svg width="35" height="35" viewBox="0 0 35 35" fill="none" xmlns="http://www.w3.org/2000/svg">
<rect x="0.5" y="0.5" width="34" height="34" stroke="#E7F0DC"/>
<path fill-rule="evenodd" clip-rule="evenodd" d="M12.8596 3.08422C14.0903 1.85351 15.7595 1.16211 17.5 1.16211C19.2405 1.16211 20.9097 1.85351 22.1404 3.08422C23.3711 4.31493 24.0625 5.98413 24.0625 7.72461V14.2188C24.0625 14.8228 23.5728 15.3125 22.9688 15.3125C22.3647 15.3125 21.875 14.8228 21.875 14.2188V7.72461C21.875 6.56429 21.4141 5.45149 20.5936 4.63102C19.7731 3.81055 18.6603 3.34961 17.5 3.34961C16.3397 3.34961 15.2269 3.81055 14.4064 4.63102C13.5859 5.45149 13.125 6.56429 13.125 7.72461V14.2188C13.125 14.8228 12.6353 15.3125 12.0312 15.3125C11.4272 15.3125 10.9375 14.8228 10.9375 14.2188V7.72461C10.9375 5.98413 11.6289 4.31493 12.8596 3.08422Z" fill="#21272A"/>
<path fill-rule="evenodd" clip-rule="evenodd" d="M9.84375 15.3125C8.63563 15.3125 7.65625 16.2919 7.65625 17.5V29.5312C7.65625 30.7394 8.63563 31.7188 9.84375 31.7188H25.1562C26.3644 31.7188 27.3438 30.7394 27.3438 29.5312V17.5C27.3438 16.2919 26.3644 15.3125 25.1562 15.3125H9.84375ZM5.46875 17.5C5.46875 15.0838 7.4275 13.125 9.84375 13.125H25.1562C27.5725 13.125 29.5312 15.0838 29.5312 17.5V29.5312C29.5312 31.9475 27.5725 33.9062 25.1562 33.9062H9.84375C7.4275 33.9062 5.46875 31.9475 5.46875 29.5312V17.5Z" fill="#21272A"/>
</svg>
