<svg width="35" height="35" viewBox="0 0 35 35" fill="none" xmlns="http://www.w3.org/2000/svg">
<g id="icon / ionicons / outline / menu-outline">
<path id="Vector (Stroke)" fill-rule="evenodd" clip-rule="evenodd" d="M4.375 10.9375C4.375 10.3334 4.86469 9.84375 5.46875 9.84375H29.5312C30.1353 9.84375 30.625 10.3334 30.625 10.9375C30.625 11.5416 30.1353 12.0312 29.5312 12.0312H5.46875C4.86469 12.0312 4.375 11.5416 4.375 10.9375Z" fill="#21272A"/>
<path id="Vector (Stroke)_2" fill-rule="evenodd" clip-rule="evenodd" d="M4.375 17.5C4.375 16.8959 4.86469 16.4062 5.46875 16.4062H29.5312C30.1353 16.4062 30.625 16.8959 30.625 17.5C30.625 18.1041 30.1353 18.5938 29.5312 18.5938H5.46875C4.86469 18.5938 4.375 18.1041 4.375 17.5Z" fill="#21272A"/>
<path id="Vector (Stroke)_3" fill-rule="evenodd" clip-rule="evenodd" d="M4.375 24.0625C4.375 23.4584 4.86469 22.9688 5.46875 22.9688H29.5312C30.1353 22.9688 30.625 23.4584 30.625 24.0625C30.625 24.6666 30.1353 25.1562 29.5312 25.1562H5.46875C4.86469 25.1562 4.375 24.6666 4.375 24.0625Z" fill="#21272A"/>
</g>
</svg>
