<svg width="35" height="35" viewBox="0 0 35 35" fill="none" xmlns="http://www.w3.org/2000/svg">
<g id="icon / ionicons / outline / color-palette-outline">
<path id="Vector (Stroke)" fill-rule="evenodd" clip-rule="evenodd" d="M7.93013 7.66437C11.2085 4.75869 15.4481 3.28125 19.5105 3.28125C22.9907 3.28125 26.3995 4.36825 28.9694 6.63013L28.9702 6.63084L28.9711 6.63155C32.6353 9.86932 32.6356 15.2309 28.9721 18.469C28.9718 18.4694 28.9714 18.4697 28.9711 18.47L26.9018 20.3071C26.9018 20.3071 26.9017 20.3071 26.9017 20.3072C26.6138 20.5629 26.5361 20.8089 26.5361 20.9863C26.5361 21.1637 26.6138 21.4098 26.9018 21.6656L26.9035 21.6671L26.9052 21.6686C27.0906 21.8346 27.1846 21.8929 27.2722 21.9322C27.3747 21.9781 27.5373 22.0282 27.8988 22.0879L27.9006 22.0882L27.9024 22.0885C27.9331 22.0937 27.9661 22.099 28.0012 22.1048C28.5091 22.1876 29.455 22.3418 30.1445 22.979L30.1465 22.9809L30.1485 22.9827C30.8007 23.5916 31.1383 24.4826 31.1658 25.3363C31.1938 26.2043 30.9036 27.17 30.1205 27.8617C27.2338 30.4277 23.228 31.7188 19.2234 31.7188H19.1032L19.0993 31.7187C15.0908 31.6898 10.9953 30.3675 7.9307 27.6574C1.73032 22.1773 1.73013 13.1447 7.93013 7.66437ZM19.5105 5.46875C15.9579 5.46875 12.2408 6.76651 9.38055 9.30188L9.37995 9.30241L9.37936 9.30293C4.16391 13.9125 4.16391 21.4088 9.37936 26.0184L9.37959 26.0186C11.9878 28.3251 15.5468 29.5047 19.1111 29.5312H19.2234C22.7923 29.5312 26.2506 28.3755 28.6685 26.2256L28.6701 26.2241L28.6718 26.2227C28.8718 26.0463 28.9909 25.7618 28.9794 25.4069C28.9676 25.0385 28.8175 24.7342 28.6577 24.5836C28.4923 24.4323 28.1966 24.3566 27.5407 24.2459C27.1166 24.1757 26.7362 24.0891 26.3777 23.9284C26.0046 23.7612 25.7196 23.5431 25.4474 23.2995C24.759 22.6873 24.3486 21.8711 24.3486 20.9863C24.3486 20.1007 24.7597 19.2839 25.4492 18.6715L27.5216 16.8316L27.5226 16.8308C30.2015 14.4636 30.2018 10.639 27.5234 8.27152C25.4177 6.41862 22.5514 5.46875 19.5105 5.46875Z" fill="#21272A"/>
<path id="Vector" d="M9.84375 16.4062C11.0519 16.4062 12.0312 15.4269 12.0312 14.2188C12.0312 13.0106 11.0519 12.0312 9.84375 12.0312C8.63563 12.0312 7.65625 13.0106 7.65625 14.2188C7.65625 15.4269 8.63563 16.4062 9.84375 16.4062Z" fill="#21272A"/>
<path id="Vector_2" d="M10.3906 23.4473C11.5987 23.4473 12.5781 22.4679 12.5781 21.2598C12.5781 20.0516 11.5987 19.0723 10.3906 19.0723C9.1825 19.0723 8.20312 20.0516 8.20312 21.2598C8.20312 22.4679 9.1825 23.4473 10.3906 23.4473Z" fill="#21272A"/>
<path id="Vector_3" d="M15.3125 12.0312C16.5206 12.0312 17.5 11.0519 17.5 9.84375C17.5 8.63563 16.5206 7.65625 15.3125 7.65625C14.1044 7.65625 13.125 8.63563 13.125 9.84375C13.125 11.0519 14.1044 12.0312 15.3125 12.0312Z" fill="#21272A"/>
<path id="Vector_4" d="M17.5 28.3691C19.3122 28.3691 20.7812 26.9001 20.7812 25.0879C20.7812 23.2757 19.3122 21.8066 17.5 21.8066C15.6878 21.8066 14.2188 23.2757 14.2188 25.0879C14.2188 26.9001 15.6878 28.3691 17.5 28.3691Z" fill="#21272A"/>
<path id="Vector_5" d="M22.4219 12.0312C23.63 12.0312 24.6094 11.0519 24.6094 9.84375C24.6094 8.63563 23.63 7.65625 22.4219 7.65625C21.2138 7.65625 20.2344 8.63563 20.2344 9.84375C20.2344 11.0519 21.2138 12.0312 22.4219 12.0312Z" fill="#21272A"/>
</g>
</svg>
