<svg width="29" height="31" viewBox="0 0 29 31" fill="none" xmlns="http://www.w3.org/2000/svg">
<g id="Group 18">
<path id="Vector" d="M14.5004 15.5C10.8842 15.5 7.69868 12.1025 7.39107 7.92578C7.23384 5.80664 7.89009 3.84473 9.23677 2.40234C10.5629 0.973633 12.436 0.1875 14.5004 0.1875C16.5512 0.1875 18.4174 0.980469 19.7504 2.41602C21.104 3.87207 21.7602 5.82715 21.603 7.92578C21.2954 12.1025 18.1098 15.5 14.5004 15.5ZM14.5004 2.375C13.0512 2.375 11.7456 2.91504 10.8364 3.89258C9.91353 4.88379 9.46236 6.26465 9.57173 7.76855C9.79048 10.7764 12.0463 13.3193 14.4936 13.3193C16.9409 13.3193 19.1967 10.7764 19.4155 7.76855C19.5249 6.28516 19.0737 4.91113 18.1372 3.90625C17.2348 2.91504 15.936 2.375 14.5004 2.375Z" fill="#21272A"/>
<path id="Vector_2" d="M26.5318 30.8125H2.46926C1.81301 30.8125 1.22512 30.5391 0.814961 30.0537C0.370625 29.5205 0.192891 28.7959 0.322774 28.0645C0.896993 24.8652 2.70168 22.1719 5.53176 20.292C8.04738 18.6172 11.2329 17.6943 14.5005 17.6943C17.7681 17.6943 20.9536 18.6172 23.4693 20.292C26.2993 22.1787 28.104 24.8652 28.6782 28.0645C28.8081 28.7959 28.6304 29.5205 28.1861 30.0537C27.7759 30.5391 27.188 30.8125 26.5318 30.8125ZM2.48293 28.625H26.5181C26.5318 28.5908 26.5386 28.5361 26.5249 28.4473C25.4654 22.5615 19.5454 19.875 14.5005 19.875C9.45559 19.875 3.53566 22.5615 2.47609 28.4473C2.46242 28.5361 2.46926 28.5908 2.48293 28.625Z" fill="#21272A"/>
</g>
</svg>
